<svg width="766" height="847" viewBox="0 0 766 847" fill="none" xmlns="http://www.w3.org/2000/svg">
<path d="M115.501 38.9781L112.002 53.0125L88.9009 47.2531L70.7866 119.909L53.3988 115.574L71.5131 42.9181L48.4122 37.1587L51.9112 23.1243L115.501 38.9781ZM134.59 54.027C131.527 53.2632 129.197 51.6711 127.602 49.2507C126.11 46.7681 125.726 44.0778 126.448 41.1798C127.171 38.2819 128.763 36.1284 131.225 34.7195C133.79 33.2484 136.605 32.8947 139.668 33.6585C142.732 34.4223 145.01 36.0455 146.501 38.5281C148.097 40.9486 148.533 43.6078 147.81 46.5057C147.088 49.4037 145.444 51.5882 142.878 53.0593C140.417 54.4683 137.654 54.7908 134.59 54.027ZM141.116 64.3607L123.962 133.166L106.574 128.831L123.728 60.0256L141.116 64.3607ZM145.247 101.932C147.022 94.8112 150.02 88.9625 154.239 84.3859C158.478 79.7265 163.526 76.5877 169.382 74.9696C175.259 73.2688 181.509 73.244 188.133 74.8955C196.661 77.0217 203.163 80.9291 207.637 86.6178C212.214 92.2442 214.495 99.145 214.48 107.32L195.726 102.644C195.476 99.4159 194.356 96.6744 192.368 94.4198C190.483 92.103 187.802 90.5111 184.324 89.6441C179.356 88.4055 174.969 89.2465 171.163 92.1672C167.377 95.005 164.659 99.7359 163.007 106.36C161.377 112.901 161.556 118.354 163.546 122.72C165.556 127.003 169.045 129.764 174.013 131.002C181.051 132.757 186.431 130.756 190.152 125L208.906 129.676C205.144 136.653 199.901 141.634 193.176 144.618C186.452 147.603 178.867 148.042 170.421 145.937C163.798 144.285 158.28 141.371 153.869 137.193C149.479 132.932 146.495 127.791 144.918 121.77C143.362 115.665 143.472 109.053 145.247 101.932Z" fill="black"/>
<path d="M312.552 48.1143L314.004 62.5052L290.316 64.8953L297.833 139.397L280.004 141.196L272.487 66.6943L248.799 69.0844L247.347 54.6934L312.552 48.1143ZM326.36 100.625C325.641 93.4936 326.403 87.027 328.648 81.2256C330.978 75.4157 334.413 70.7808 338.952 67.321C343.577 63.8525 348.903 61.8142 354.931 61.206C360.195 60.6748 364.887 61.2735 369.007 63.002C373.211 64.7219 376.665 67.0751 379.368 70.0615L378.352 60.0006L396.309 58.1888L403.428 128.743L385.471 130.554L384.43 120.239C382.472 123.781 379.567 126.862 375.714 129.48C371.938 132.006 367.418 133.534 362.154 134.065C356.211 134.665 350.623 133.685 345.39 131.125C340.242 128.557 335.947 124.659 332.503 119.432C329.136 114.111 327.088 107.842 326.36 100.625ZM381.912 95.2775C381.475 90.9475 380.253 87.3399 378.247 84.4547C376.232 81.4847 373.7 79.3387 370.65 78.0168C367.592 76.6101 364.408 76.0737 361.096 76.4078C357.785 76.7419 354.81 77.8569 352.171 79.7527C349.532 81.6486 347.48 84.2571 346.014 87.5784C344.624 90.8062 344.143 94.5427 344.572 98.7878C345 103.033 346.226 106.683 348.25 109.738C350.349 112.699 352.886 114.888 355.859 116.303C358.917 117.71 362.059 118.251 365.285 117.925C368.597 117.591 371.614 116.472 374.338 114.567C377.053 112.578 379.106 109.969 380.496 106.742C381.877 103.429 382.349 99.6075 381.912 95.2775ZM412.698 92.1712C411.961 84.8696 412.804 78.352 415.227 72.6185C417.642 66.8 421.332 62.1394 426.296 58.6367C431.251 55.0491 437.125 52.9126 443.917 52.2273C452.662 51.3449 460.102 52.8242 466.236 56.6652C472.446 60.4126 476.926 66.1358 479.675 73.8347L460.445 75.775C459.118 72.8214 457.137 70.6197 454.504 69.1701C451.947 67.627 448.885 67.0354 445.319 67.3952C440.225 67.9092 436.381 70.1839 433.786 74.2195C431.183 78.1701 430.224 83.5415 430.909 90.3337C431.586 97.041 433.599 102.113 436.947 105.548C440.287 108.899 444.504 110.318 449.598 109.804C456.815 109.076 461.201 105.374 462.758 98.6986L481.988 96.7583C480.806 104.597 477.556 111.057 472.237 116.139C466.917 121.222 459.928 124.2 451.267 125.073C444.475 125.759 438.297 124.881 432.734 122.441C427.161 119.915 422.615 116.086 419.095 110.952C415.567 105.733 413.434 99.4728 412.698 92.1712Z" fill="#FFE680"/>
<path d="M595.527 31.1337L591.649 45.0682L568.712 38.6851L548.636 110.824L531.372 106.019L551.448 33.8806L528.512 27.4975L532.39 13.563L595.527 31.1337ZM614.195 130.264C607.619 128.434 602.1 125.348 597.639 121.006C593.202 116.583 590.205 111.276 588.651 105.086C587.178 98.9185 587.414 92.341 589.359 85.3532C591.304 78.3654 594.54 72.623 599.069 68.1259C603.68 63.6517 609.058 60.7195 615.202 59.3292C621.37 57.8568 627.742 58.0357 634.318 59.866C640.895 61.6963 646.443 64.8348 650.963 69.2814C655.506 73.6458 658.555 78.9231 660.11 85.1132C661.746 91.3262 661.593 97.9266 659.648 104.914C657.703 111.902 654.384 117.622 649.691 122.073C645.08 126.547 639.65 129.509 633.4 130.959C627.256 132.349 620.854 132.117 614.195 130.264ZM618.382 115.22C621.506 116.089 624.63 116.162 627.755 115.437C630.985 114.653 633.845 112.969 636.336 110.384C638.827 107.8 640.678 104.33 641.891 99.9726C643.698 93.478 643.356 88.0239 640.864 83.6103C638.477 79.1372 634.818 76.2144 629.885 74.8417C624.952 73.469 620.309 74.0811 615.955 76.6781C611.705 79.2157 608.677 83.7318 606.87 90.2263C605.062 96.7209 605.27 102.182 607.492 106.609C609.82 110.977 613.45 113.847 618.382 115.22ZM736.23 124.633C735.544 127.099 734.762 129.273 733.884 131.154L683.942 117.255C682.98 122.302 683.631 126.647 685.895 130.288C688.159 133.93 691.51 136.368 695.95 137.604C702.362 139.388 707.691 137.904 711.937 133.151L730.557 138.333C726.754 144.361 721.462 148.734 714.682 151.453C707.925 154.09 700.477 154.276 692.339 152.011C685.762 150.181 680.243 147.095 675.783 142.754C671.427 138.353 668.513 133.069 667.041 126.901C665.65 120.757 665.928 114.191 667.872 107.203C669.84 100.133 673.006 94.3268 677.37 89.7839C681.735 85.2411 686.907 82.2516 692.887 80.8157C698.867 79.3797 705.227 79.5997 711.968 81.4758C718.463 83.2832 723.87 86.2937 728.189 90.5072C732.59 94.7437 735.468 99.8405 736.822 105.798C738.28 111.695 738.083 117.974 736.23 124.633ZM719.722 114.724C720.876 110.262 720.256 106.281 717.864 102.78C715.495 99.1982 712.05 96.7779 707.529 95.5196C703.254 94.3299 699.271 94.6386 695.579 96.4457C691.992 98.1934 689.23 101.278 687.291 105.698L719.722 114.724Z" fill="#AB95E6"/>
<g filter="url(#filter0_d_9_59)">
<line x1="240.322" y1="312.592" x2="376.361" y2="820.297" stroke="black" stroke-width="11"/>
<line x1="632.784" y1="388.788" x2="125.079" y2="524.828" stroke="black" stroke-width="11"/>
<line x1="419.004" y1="264.714" x2="555.044" y2="772.419" stroke="black" stroke-width="11"/>
<line x1="680.662" y1="567.471" x2="172.957" y2="703.51" stroke="black" stroke-width="11"/>
<circle cx="400.017" cy="547.824" r="61.4777" transform="rotate(-15 400.017 547.824)" stroke="#AB95E6" stroke-width="11"/>
<circle cx="267.562" cy="768.223" r="61.4777" transform="rotate(-15 267.562 768.223)" stroke="#AB95E6" stroke-width="11"/>
<circle cx="351.479" cy="366.676" r="61.4777" transform="rotate(-15 351.479 366.676)" stroke="#AB95E6" stroke-width="11"/>
<line y1="-5.5" x2="185.328" y2="-5.5" transform="matrix(0.878031 0.478604 -0.521096 0.853498 85.2975 376.36)" stroke="#FFE680" stroke-width="11"/>
<line y1="-5.5" x2="185.328" y2="-5.5" transform="matrix(0.878031 0.478604 -0.521096 0.853498 365.809 678.937)" stroke="#FFE680" stroke-width="11"/>
<line y1="-5.5" x2="185.328" y2="-5.5" transform="matrix(0.878031 0.478604 -0.521096 0.853498 450.057 278.623)" stroke="#FFE680" stroke-width="11"/>
<line y1="-5.5" x2="185.328" y2="-5.5" transform="matrix(-0.521096 0.853498 -0.878031 -0.478604 212.371 331.969)" stroke="#FFE680" stroke-width="11"/>
<line y1="-5.5" x2="185.328" y2="-5.5" transform="matrix(-0.521096 0.853498 -0.878031 -0.478604 492.882 634.546)" stroke="#FFE680" stroke-width="11"/>
<line y1="-5.5" x2="185.328" y2="-5.5" transform="matrix(-0.521096 0.853498 -0.878031 -0.478604 577.13 234.232)" stroke="#FFE680" stroke-width="11"/>
</g>
<defs>
<filter id="filter0_d_9_59" x="81.2975" y="234.232" width="604.788" height="611.985" filterUnits="userSpaceOnUse" color-interpolation-filters="sRGB">
<feFlood flood-opacity="0" result="BackgroundImageFix"/>
<feColorMatrix in="SourceAlpha" type="matrix" values="0 0 0 0 0 0 0 0 0 0 0 0 0 0 0 0 0 0 127 0" result="hardAlpha"/>
<feOffset dy="7"/>
<feGaussianBlur stdDeviation="2"/>
<feComposite in2="hardAlpha" operator="out"/>
<feColorMatrix type="matrix" values="0 0 0 0 0 0 0 0 0 0 0 0 0 0 0 0 0 0 0.25 0"/>
<feBlend mode="normal" in2="BackgroundImageFix" result="effect1_dropShadow_9_59"/>
<feBlend mode="normal" in="SourceGraphic" in2="effect1_dropShadow_9_59" result="shape"/>
</filter>
</defs>
</svg>
